<?xml version="1.0" encoding="UTF-8"?>
<svg version="1.1" xmlns="http://www.w3.org/2000/svg" width="1024" height="1024">
<path d="M0 0 C2.6487708 -0.00187378 5.29753875 -0.00413779 7.94630855 -0.00686532 C13.65071411 -0.01195866 19.35511121 -0.01344727 25.05951881 -0.01240921 C33.54283008 -0.01086931 42.02613215 -0.01507857 50.50944162 -0.02028384 C66.54768663 -0.02990138 82.58592841 -0.03276592 98.62417597 -0.03334089 C111.01318347 -0.03380213 123.40218973 -0.03586924 135.79119682 -0.03904152 C139.369575 -0.03993917 142.94795318 -0.04082899 146.52633137 -0.0417164 C147.41613915 -0.04193744 148.30594694 -0.04215849 149.22271861 -0.04238624 C174.21239325 -0.04853069 199.20206746 -0.05248777 224.1917429 -0.05204296 C225.60185587 -0.05201959 225.60185587 -0.05201959 227.04045598 -0.05199575 C231.80416472 -0.05191266 236.56787346 -0.05181362 241.3315822 -0.05171105 C242.75049223 -0.05168113 242.75049223 -0.05168113 244.1980671 -0.05165061 C246.11098018 -0.05161017 248.02389327 -0.05156837 249.93680635 -0.05152521 C279.70795207 -0.05091227 309.47908641 -0.05842657 339.25022888 -0.07209778 C372.76512729 -0.08748214 406.28001822 -0.09606269 439.79492038 -0.09513456 C443.37298421 -0.09505993 446.95104804 -0.09501122 450.52911186 -0.09498024 C451.41000281 -0.09496859 452.29089376 -0.09495693 453.19847838 -0.09494492 C467.3243977 -0.09491425 481.45030706 -0.10127759 495.57622342 -0.1099125 C509.78545443 -0.11841844 523.99467099 -0.11935591 538.20390315 -0.11280318 C546.62582107 -0.10912795 555.04769486 -0.11087883 563.46960804 -0.12074552 C569.11565088 -0.12679689 574.76166216 -0.12539363 580.40770362 -0.11827503 C583.61069281 -0.11443661 586.81358204 -0.11463375 590.01656801 -0.12173238 C602.5768154 -0.14769956 615.06083039 0.08054132 627.59120083 1.00072765 C628.63164799 1.07510078 629.67209515 1.1494739 630.74407101 1.22610076 C640.9764382 2.06365839 650.73800487 4.33311473 660.59324646 7.13371277 C661.58880554 7.40900818 661.58880554 7.40900818 662.60447693 7.68986511 C669.54407453 9.62289558 676.11523234 11.98831863 682.59324646 15.13371277 C683.2107074 15.41730652 683.82816833 15.70090027 684.46434021 15.99308777 C702.13045472 24.36704641 720.94177746 37.16688488 732.59324646 53.13371277 C732.59324646 53.79371277 732.59324646 54.45371277 732.59324646 55.13371277 C733.18105896 55.35543152 733.76887146 55.57715027 734.37449646 55.80558777 C737.27478666 57.54167697 738.35836486 59.49750065 740.09324646 62.38371277 C741.87989738 65.32356565 743.65755214 68.22766912 745.60105896 71.06730652 C756.79412456 88.29584867 762.74878423 109.71682648 764.94773865 129.93083191 C765.31998842 133.65241965 765.31998842 133.65241965 766.59324646 137.13371277 C766.68757722 138.7014395 766.71847302 140.27316934 766.71859562 141.84373146 C766.7223509 143.34657656 766.7223509 143.34657656 766.72618204 144.87978217 C766.72384088 145.99086672 766.72149971 147.10195127 766.7190876 148.24670506 C766.72054104 149.42382123 766.72199448 150.60093741 766.72349197 151.81372377 C766.72653029 155.10574658 766.72504264 158.39771298 766.72171401 161.68973196 C766.71919063 165.26181229 766.72243191 168.83388797 766.72495735 172.40596765 C766.72858012 178.6746319 766.72845269 184.94328755 766.72591019 191.21195221 C766.72213972 200.53336737 766.72405516 209.85477523 766.72711849 219.17619033 C766.73239442 235.8204753 766.73192381 252.46475644 766.72903958 269.10904178 C766.72652797 283.67376343 766.72586548 298.23848367 766.72706223 312.80320549 C766.7271768 314.25012762 766.7271768 314.25012762 766.7272937 315.7262805 C766.72760501 319.64156196 766.72792341 323.55684341 766.72825346 327.47212487 C766.73131512 364.22928076 766.72853474 400.9864342 766.72315656 437.74358972 C766.71841029 470.43067957 766.7188356 503.11776553 766.72361755 535.80485535 C766.72896708 572.49458022 766.7310984 609.18430294 766.72800529 645.87402815 C766.72768455 649.7820307 766.72737171 653.69003326 766.72706223 657.59803581 C766.72698315 658.56034812 766.72690407 659.52266043 766.7268226 660.51413372 C766.72568305 675.07367338 766.72701924 689.63321149 766.72954178 704.19275093 C766.73239427 720.73963978 766.73170069 737.28652418 766.72626103 753.83341248 C766.72331407 763.1047244 766.72314839 772.37602672 766.72690721 781.64733841 C766.72913778 787.8285407 766.7277756 794.00973524 766.72340244 800.19093637 C766.72100763 803.72050716 766.72024321 807.25005877 766.72380842 810.779629 C766.72759694 814.56861698 766.72377183 818.35757408 766.7190876 822.14656162 C766.72142877 823.25998734 766.72376993 824.37341306 766.72618204 825.52057895 C766.72367853 826.51997217 766.72117501 827.51936538 766.71859562 828.54904324 C766.71849399 829.85088822 766.71849399 829.85088822 766.71839029 831.1790331 C766.59324646 833.13371277 766.59324646 833.13371277 765.59324646 834.13371277 C765.120712 837.17358413 764.69113883 840.21040022 764.28074646 843.25871277 C759.00951569 880.03291405 739.6132103 912.99302233 710.29051208 935.86369324 C699.05387312 944.27177665 686.83170013 951.18788666 673.63621521 955.95793152 C670.57028655 957.07484017 670.57028655 957.07484017 667.72605896 958.64543152 C663.97433073 960.42773633 660.31909038 961.35825908 656.28074646 962.25871277 C655.53180115 962.43120544 654.78285583 962.60369812 654.01121521 962.78141785 C648.88162093 963.93190302 643.83163785 964.66599925 638.59324646 965.13371277 C638.26324646 965.46371277 637.93324646 965.79371277 637.59324646 966.13371277 C630.77689447 967.46257614 623.83904473 967.47572677 616.91593552 967.68785572 C615.92752857 967.71930664 615.92752857 967.71930664 614.91915381 967.75139293 C600.7562755 968.19785455 586.59971515 968.27698238 572.43022156 968.26742554 C569.73603687 968.26930006 567.04185498 968.27156447 564.34767127 968.27429086 C558.55354973 968.27937675 552.75943651 968.28087416 546.96531296 968.27983475 C538.34907162 968.27829293 529.73283932 968.28250808 521.11659976 968.28770937 C504.82964647 968.29731841 488.54269635 968.30019107 472.25574055 968.30076643 C459.68033254 968.30122777 447.10492575 968.30329536 434.52951813 968.30646706 C430.89675768 968.3073647 427.26399724 968.30825452 423.63123679 968.30914193 C422.27626408 968.30947351 422.27626408 968.30947351 420.89391817 968.30981178 C395.53377745 968.31595414 370.17363714 968.31991349 344.81349564 968.3194685 C343.85987088 968.31945292 342.90624612 968.31943734 341.92372364 968.31942129 C337.09135474 968.31933819 332.25898584 968.31923915 327.42661694 968.31913658 C326.4670379 968.31911664 325.50745887 968.31909669 324.51880168 968.31907614 C322.57831231 968.3190357 320.63782295 968.31899391 318.69733359 968.31895075 C288.4692737 968.31833725 258.24122502 968.32586327 228.01316833 968.33952332 C193.98816106 968.35489319 159.96316113 968.36348919 125.93815017 968.36256009 C122.30916198 968.36248547 118.6801738 968.36243676 115.05118561 968.36240578 C114.15774642 968.36239412 113.26430723 968.36238247 112.34379413 968.36237046 C97.9942297 968.36233975 83.64467504 968.36871268 69.29511352 968.37733804 C54.87690831 968.38582557 40.45871736 968.38679566 26.04051104 968.38022872 C17.48581057 968.37654206 8.93115348 968.37833916 0.37645763 968.38817106 C-5.34777702 968.39419216 -11.07198041 968.39285208 -16.79621366 968.38570056 C-20.05037111 968.38183732 -23.30442897 968.38211322 -26.55858347 968.38915791 C-43.74613561 968.42388825 -60.58805969 968.00921682 -77.40675354 964.13371277 C-78.61976135 963.89136902 -79.83276917 963.64902527 -81.08253479 963.39933777 C-110.08915426 957.39035559 -136.95046532 942.58786871 -157.40675354 921.13371277 C-158.05128479 920.47242371 -158.69581604 919.81113464 -159.35987854 919.12980652 C-179.3571854 897.90888822 -190.55302648 870.47726318 -195.03712463 841.98698425 C-195.33879192 840.04994377 -195.33879192 840.04994377 -196.40675354 838.13371277 C-197.4005457 831.17051192 -197.54786611 824.33754368 -197.53259468 817.31225777 C-197.53404812 816.14356763 -197.53550156 814.9748775 -197.53699905 813.77077252 C-197.54001362 810.53495439 -197.53856955 807.29917415 -197.53522109 804.0633575 C-197.53267934 800.53988004 -197.53594632 797.0164071 -197.53846443 793.49293029 C-197.54207376 787.32015769 -197.54196798 781.14739383 -197.53941727 774.97462082 C-197.53563453 765.7953721 -197.53756868 756.61613075 -197.54062557 747.43688208 C-197.54589213 731.04210906 -197.54543456 714.64733994 -197.54254666 698.25256655 C-197.5400316 683.90401749 -197.53937417 669.55546986 -197.54056931 655.20692062 C-197.54064569 654.25532907 -197.54072208 653.30373751 -197.54080078 652.32330985 C-197.54111211 648.46051557 -197.54143051 644.5977213 -197.54176054 640.73492703 C-197.54482006 604.49303254 -197.54204534 568.25114053 -197.53666364 532.00924643 C-197.53191875 499.81098779 -197.53234197 467.6127331 -197.53712463 435.41447449 C-197.54247965 399.24209116 -197.54460232 363.06971002 -197.54151237 326.89732635 C-197.54119165 323.04092972 -197.54087881 319.18453308 -197.54056931 315.32813644 C-197.54049023 314.37858907 -197.54041115 313.4290417 -197.54032968 312.45072016 C-197.53919229 298.11262982 -197.54052235 283.77454107 -197.54304886 269.43645096 C-197.54590761 253.13156321 -197.54519439 236.82667997 -197.53976811 220.52179278 C-197.53683152 211.39696368 -197.53664061 202.27214433 -197.54041429 193.14731548 C-197.54265729 187.05123884 -197.54125996 180.95517002 -197.53690952 174.85909454 C-197.53453214 171.38646913 -197.53371454 167.9138631 -197.5373155 164.4412383 C-197.54035284 160.69642357 -197.53724036 156.951662 -197.53259468 153.20685005 C-197.53493585 152.13453017 -197.53727701 151.06221028 -197.53968912 149.95739585 C-197.51149494 138.59865981 -196.20047282 128.13542547 -193.40675354 117.13371277 C-193.22596252 116.39491882 -193.04517151 115.65612488 -192.85890198 114.89494324 C-190.42083947 104.93307681 -187.71076625 95.48125928 -183.40675354 86.13371277 C-182.79860979 84.71874882 -182.19379391 83.3023435 -181.59425354 81.88371277 C-181.20237854 80.97621277 -180.81050354 80.06871277 -180.40675354 79.13371277 C-179.74675354 79.13371277 -179.08675354 79.13371277 -178.40675354 79.13371277 C-178.27140198 78.60004089 -178.13605042 78.06636902 -177.99659729 77.51652527 C-176.03446387 70.72542874 -172.58621537 65.76397629 -168.40675354 60.13371277 C-167.70550354 59.04058777 -167.00425354 57.94746277 -166.28175354 56.82121277 C-164.23975061 53.89434191 -161.99021253 51.59114937 -159.40675354 49.13371277 C-158.58175354 48.30871277 -157.75675354 47.48371277 -156.90675354 46.63371277 C-154.40675354 44.13371277 -151.90675354 41.63371277 -149.40675354 39.13371277 C-148.71452698 38.38347839 -148.02230042 37.63324402 -147.30909729 36.86027527 C-143.6434655 33.41665348 -139.6681053 30.75767531 -135.46925354 28.00871277 C-134.68356995 27.48406433 -133.89788635 26.95941589 -133.08839417 26.41886902 C-128.96915036 23.69568692 -124.88241027 21.24293031 -120.40675354 19.13371277 C-119.64233948 18.73410339 -118.87792542 18.33449402 -118.09034729 17.92277527 C-103.87516796 10.55560407 -89.18941874 6.37458078 -73.40675354 4.13371277 C-72.35487854 3.80371277 -71.30300354 3.47371277 -70.21925354 3.13371277 C-61.09749212 0.74111961 -51.25870695 0.91561782 -41.86967564 0.57956982 C-40.70156164 0.53744767 -39.53344763 0.49532553 -38.32993624 0.45192696 C-25.55303721 0.02487587 -12.78274489 -0.00873479 0 0 Z " fill="#817FFB" transform="translate(227.40675354003906,27.866287231445313)"/>
<path d="M0 0 C0.85206024 0.00054382 1.70412048 0.00108765 2.58200073 0.00164795 C16.71944409 0.04295603 30.20874834 1.07571798 44 4.375 C44.90347168 4.58398926 45.80694336 4.79297852 46.73779297 5.00830078 C69.53191059 10.39512093 95.32507303 18.2517337 114.0859375 32.76171875 C117.99507087 34.92589044 120.83315444 34.32858294 125 33.375 C125.71430176 33.2188623 126.42860352 33.06272461 127.16455078 32.90185547 C127.91591309 32.7370166 128.66727539 32.57217773 129.44140625 32.40234375 C153.89168859 27.0420802 182.54395073 26.66077941 207 32.375 C207.90524414 32.57899414 208.81048828 32.78298828 209.74316406 32.99316406 C222.94256304 36.0249217 235.58930256 39.95420418 248 45.375 C248.76763672 45.70870605 249.53527344 46.04241211 250.32617188 46.38623047 C273.07813317 56.41148868 293.36949495 69.90105079 311.4453125 86.97265625 C313.55880597 88.9601157 315.70889297 90.83340992 317.9375 92.6875 C328.84620177 102.22134473 337.878686 113.60468342 346.42675781 125.23681641 C347.44777028 126.62446805 348.47540254 128.0072823 349.51074219 129.38427734 C370.47927188 157.28472374 387.37095592 190.69142838 393 225.375 C393.27263672 226.93734375 393.27263672 226.93734375 393.55078125 228.53125 C395.56520712 241.28344157 391.42272226 252.99934236 384 263.375 C376.85470168 271.96020388 368.77234581 279.73215155 360.8671875 287.60546875 C359.45840969 289.01232381 358.04986203 290.41940936 356.64152527 291.82670593 C353.62777943 294.83730953 350.61249212 297.84635737 347.59597778 300.85418701 C342.82871157 305.60786492 338.06532121 310.36541405 333.30249023 315.12353516 C323.20462966 325.21033259 313.10252098 335.29287057 303 345.375 C292.06447856 356.28849232 281.12970066 367.20272375 270.19976807 378.12181377 C265.46135703 382.85523446 260.72051692 387.58620483 255.9778204 392.31533146 C253.03828236 395.24743548 250.10079488 398.1815871 247.16387367 401.11631203 C245.79771922 402.48058742 244.43069719 403.84399465 243.06276512 405.20648766 C241.20239074 407.05969426 239.34507985 408.91591699 237.48852539 410.77294922 C236.9411717 411.31670794 236.39381802 411.86046667 235.82987785 412.42070293 C233.07116323 415.13795482 233.07116323 415.13795482 231 418.375 C230.34 418.375 229.68 418.375 229 418.375 C229 419.035 229 419.695 229 420.375 C227.3734159 422.10101126 225.71040677 423.73452135 224 425.375 C222.72824048 426.64929588 221.46001499 427.92712377 220.19439697 429.20751953 C219.47691284 429.9307843 218.75942871 430.65404907 218.02020264 431.39923096 C216.86213104 432.56672882 216.86213104 432.56672882 215.68066406 433.7578125 C207.26812452 442.23586322 198.84536539 450.70367567 190.41662979 459.1656189 C185.3214328 464.28143831 180.23006873 469.40096729 175.14746094 474.52929688 C170.69929658 479.01745341 166.24403553 483.49842378 161.78027892 487.97107506 C159.42346562 490.33307575 157.07140155 492.69936543 154.72559357 495.07232666 C152.10532668 497.72172696 149.47270672 500.3582451 146.83691406 502.9921875 C145.69098785 504.15968536 145.69098785 504.15968536 144.52191162 505.35076904 C135.887967 513.91956893 128.12278585 517.77808194 115.91455078 517.81933594 C95.22706781 517.23379432 76.74220964 490.20988928 63 476.375 C59.44134967 472.79259086 55.88096548 469.21193708 52.31637573 465.63543701 C50.90683252 464.21947743 49.50037646 462.8004468 48.09399414 461.38134766 C47.23539795 460.51944824 46.37680176 459.65754883 45.4921875 458.76953125 C44.74308105 458.01518799 43.99397461 457.26084473 43.22216797 456.48364258 C40.91642398 454.29569369 38.49171426 452.34626708 36 450.375 C34.31337542 448.72853315 32.64488294 447.06316933 31 445.375 C30.401875 444.818125 29.80375 444.26125 29.1875 443.6875 C28 442.375 28 442.375 28 440.375 C27.41089844 440.12492187 26.82179688 439.87484375 26.21484375 439.6171875 C23.70690295 438.21061753 22.37575422 436.71945666 20.5625 434.5 C18.60745494 432.18383197 16.87521603 430.27517282 14.5 428.375 C12.28572851 426.60358281 10.69726794 424.93569315 8.87695312 422.78710938 C4.94000396 418.24132726 0.74290419 414.00819117 -3.53125 409.78125 C-4.32599731 408.99028931 -5.12074463 408.19932861 -5.9395752 407.38439941 C-8.45728432 404.87880477 -10.97821446 402.37649142 -13.5 399.875 C-16.82588189 396.5758832 -20.14832336 393.27335626 -23.46875 389.96875 C-24.21999146 389.22580688 -24.97123291 388.48286377 -25.74523926 387.71740723 C-29.84016482 383.64133004 -33.75566426 379.47605651 -37.5123291 375.08532715 C-39.56164559 372.72929422 -41.76355316 370.55259298 -44 368.375 C-47.54918157 364.8632345 -50.91968457 361.28491099 -54.1640625 357.4921875 C-56.3520617 354.96900545 -58.61293113 352.51945481 -60.875 350.0625 C-64.91279322 345.63003526 -68.77307434 341.09757823 -72.53515625 336.4296875 C-74.34085175 334.1918842 -76.15979312 331.97018101 -77.99609375 329.7578125 C-86.11499992 319.93954294 -93.69966016 309.81501325 -101 299.375 C-101.4444043 298.74271484 -101.88880859 298.11042969 -102.34667969 297.45898438 C-121.05315573 270.68614933 -136.13152524 240.84541616 -145 209.375 C-145.22816406 208.57964844 -145.45632812 207.78429687 -145.69140625 206.96484375 C-151.51952384 186.21674512 -154.15060119 163.91868335 -153 142.375 C-152.96277832 141.53404785 -152.92555664 140.6930957 -152.88720703 139.82666016 C-150.9542802 100.02819224 -135.95391467 64.09717891 -106.64404297 36.859375 C-97.35188629 28.46966419 -87.13721383 22.04143727 -76 16.375 C-75.3080957 16.02163574 -74.61619141 15.66827148 -73.90332031 15.30419922 C-65.00158069 10.84921775 -55.99573877 7.557089 -46.375 5 C-45.48224365 4.76128174 -44.5894873 4.52256348 -43.66967773 4.27661133 C-29.24162558 0.68097688 -14.79271654 -0.03579977 0 0 Z " fill="#817EFE" transform="translate(392,268.625)"/>
<path d="M0 0 C0.85206024 0.00054382 1.70412048 0.00108765 2.58200073 0.00164795 C16.71944409 0.04295603 30.20874834 1.07571798 44 4.375 C44.90347168 4.58398926 45.80694336 4.79297852 46.73779297 5.00830078 C69.53191059 10.39512093 95.32507303 18.2517337 114.0859375 32.76171875 C117.99507087 34.92589044 120.83315444 34.32858294 125 33.375 C125.71430176 33.2188623 126.42860352 33.06272461 127.16455078 32.90185547 C127.91591309 32.7370166 128.66727539 32.57217773 129.44140625 32.40234375 C153.89168859 27.0420802 182.54395073 26.66077941 207 32.375 C207.90524414 32.57899414 208.81048828 32.78298828 209.74316406 32.99316406 C222.94256304 36.0249217 235.58930256 39.95420418 248 45.375 C248.76763672 45.70870605 249.53527344 46.04241211 250.32617188 46.38623047 C273.07813317 56.41148868 293.36949495 69.90105079 311.4453125 86.97265625 C313.55880597 88.9601157 315.70889297 90.83340992 317.9375 92.6875 C328.84620177 102.22134473 337.878686 113.60468342 346.42675781 125.23681641 C347.44777028 126.62446805 348.47540254 128.0072823 349.51074219 129.38427734 C370.47927188 157.28472374 387.37095592 190.69142838 393 225.375 C393.27263672 226.93734375 393.27263672 226.93734375 393.55078125 228.53125 C395.56520712 241.28344157 391.42272226 252.99934236 384 263.375 C376.85470168 271.96020388 368.77234581 279.73215155 360.8671875 287.60546875 C359.45840969 289.01232381 358.04986203 290.41940936 356.64152527 291.82670593 C353.62777943 294.83730953 350.61249212 297.84635737 347.59597778 300.85418701 C342.82871157 305.60786492 338.06532121 310.36541405 333.30249023 315.12353516 C323.20462966 325.21033259 313.10252098 335.29287057 303 345.375 C292.06447856 356.28849232 281.12970066 367.20272375 270.19976807 378.12181377 C265.46135703 382.85523446 260.72051692 387.58620483 255.9778204 392.31533146 C253.03828236 395.24743548 250.10079488 398.1815871 247.16387367 401.11631203 C245.79771922 402.48058742 244.43069719 403.84399465 243.06276512 405.20648766 C241.20239074 407.05969426 239.34507985 408.91591699 237.48852539 410.77294922 C236.9411717 411.31670794 236.39381802 411.86046667 235.82987785 412.42070293 C233.07116323 415.13795482 233.07116323 415.13795482 231 418.375 C230.34 418.375 229.68 418.375 229 418.375 C229 419.035 229 419.695 229 420.375 C227.3734159 422.10101126 225.71040677 423.73452135 224 425.375 C222.72824048 426.64929588 221.46001499 427.92712377 220.19439697 429.20751953 C219.47691284 429.9307843 218.75942871 430.65404907 218.02020264 431.39923096 C216.86213104 432.56672882 216.86213104 432.56672882 215.68066406 433.7578125 C207.26812452 442.23586322 198.84536539 450.70367567 190.41662979 459.1656189 C185.3214328 464.28143831 180.23006873 469.40096729 175.14746094 474.52929688 C170.69929658 479.01745341 166.24403553 483.49842378 161.78027892 487.97107506 C159.42346562 490.33307575 157.07140155 492.69936543 154.72559357 495.07232666 C152.10532668 497.72172696 149.47270672 500.3582451 146.83691406 502.9921875 C145.69098785 504.15968536 145.69098785 504.15968536 144.52191162 505.35076904 C135.887967 513.91956893 128.12278585 517.77808194 115.91455078 517.81933594 C95.22706781 517.23379432 76.74220964 490.20988928 63 476.375 C59.44134967 472.79259086 55.88096548 469.21193708 52.31637573 465.63543701 C50.90683252 464.21947743 49.50037646 462.8004468 48.09399414 461.38134766 C47.23539795 460.51944824 46.37680176 459.65754883 45.4921875 458.76953125 C44.74308105 458.01518799 43.99397461 457.26084473 43.22216797 456.48364258 C40.91642398 454.29569369 38.49171426 452.34626708 36 450.375 C34.31337542 448.72853315 32.64488294 447.06316933 31 445.375 C30.401875 444.818125 29.80375 444.26125 29.1875 443.6875 C28 442.375 28 442.375 28 440.375 C27.41089844 440.12492187 26.82179688 439.87484375 26.21484375 439.6171875 C23.70690295 438.21061753 22.37575422 436.71945666 20.5625 434.5 C18.60745494 432.18383197 16.87521603 430.27517282 14.5 428.375 C12.28572851 426.60358281 10.69726794 424.93569315 8.87695312 422.78710938 C4.94000396 418.24132726 0.74290419 414.00819117 -3.53125 409.78125 C-4.32599731 408.99028931 -5.12074463 408.19932861 -5.9395752 407.38439941 C-8.45728432 404.87880477 -10.97821446 402.37649142 -13.5 399.875 C-16.82588189 396.5758832 -20.14832336 393.27335626 -23.46875 389.96875 C-24.21999146 389.22580688 -24.97123291 388.48286377 -25.74523926 387.71740723 C-29.84016482 383.64133004 -33.75566426 379.47605651 -37.5123291 375.08532715 C-39.56164559 372.72929422 -41.76355316 370.55259298 -44 368.375 C-47.54918157 364.8632345 -50.91968457 361.28491099 -54.1640625 357.4921875 C-56.3520617 354.96900545 -58.61293113 352.51945481 -60.875 350.0625 C-64.91279322 345.63003526 -68.77307434 341.09757823 -72.53515625 336.4296875 C-74.34085175 334.1918842 -76.15979312 331.97018101 -77.99609375 329.7578125 C-86.11499992 319.93954294 -93.69966016 309.81501325 -101 299.375 C-101.4444043 298.74271484 -101.88880859 298.11042969 -102.34667969 297.45898438 C-121.05315573 270.68614933 -136.13152524 240.84541616 -145 209.375 C-145.22816406 208.57964844 -145.45632812 207.78429687 -145.69140625 206.96484375 C-151.51952384 186.21674512 -154.15060119 163.91868335 -153 142.375 C-152.96277832 141.53404785 -152.92555664 140.6930957 -152.88720703 139.82666016 C-150.9542802 100.02819224 -135.95391467 64.09717891 -106.64404297 36.859375 C-97.35188629 28.46966419 -87.13721383 22.04143727 -76 16.375 C-75.3080957 16.02163574 -74.61619141 15.66827148 -73.90332031 15.30419922 C-65.00158069 10.84921775 -55.99573877 7.557089 -46.375 5 C-45.48224365 4.76128174 -44.5894873 4.52256348 -43.66967773 4.27661133 C-29.24162558 0.68097688 -14.79271654 -0.03579977 0 0 Z M-74 81.375 C-95.19524367 105.88415798 -99.70616248 134.77553596 -98 166.375 C-94.49706549 203.4783809 -78.48091006 238.31359747 -57 268.375 C-56.44554199 269.15327148 -55.89108398 269.93154297 -55.31982422 270.73339844 C-47.71879678 281.34437267 -39.74367686 291.60449702 -31.41943359 301.65576172 C-29.42779971 304.06805718 -27.46681581 306.50495367 -25.5 308.9375 C-16.50978194 319.89997796 -7.09605394 330.4686164 2.57226562 340.83398438 C3.96062883 342.33250499 5.3344634 343.84285799 6.703125 345.359375 C12.2862376 351.53018366 18.01888674 357.48476841 23.96630859 363.30444336 C26.83652563 366.13071569 29.57747266 369.004857 32.1955719 372.06738281 C36.03002147 376.46989563 40.09313732 380.6019756 44.23022461 384.71875 C45.41681671 385.90556114 45.41681671 385.90556114 46.62738037 387.11634827 C49.21666899 389.70494579 51.80947085 392.28999312 54.40234375 394.875 C56.20859791 396.67938712 58.01462995 398.48399661 59.82044983 400.28881836 C64.07182727 404.5367808 68.32542147 408.78251088 72.58012348 413.02714252 C77.42862172 417.8644167 82.27423991 422.70457159 87.1196326 427.54495621 C97.07658077 437.49148563 107.0370938 447.43443868 117 457.375 C121.13019073 455.47491495 123.96004122 452.68944123 127.1262207 449.49169922 C127.73003571 448.88978256 128.33385071 448.28786591 128.95596313 447.66770935 C130.95082153 445.6765549 132.93838619 443.67828913 134.92578125 441.6796875 C136.31540535 440.28887053 137.70540015 438.89842386 139.0957489 437.5083313 C142.01152147 434.59099414 144.92390386 431.67032821 147.83374023 428.74707031 C151.54731483 425.01657715 155.26736594 421.29262839 158.98978901 417.57096672 C161.86327515 414.69720726 164.73413655 411.82083764 167.60414696 408.94360733 C168.97376693 407.57082349 170.34397725 406.19862835 171.71480751 404.82705307 C173.64092101 402.89874754 175.56369269 400.96716895 177.4855957 399.03466797 C178.04324112 398.47747574 178.60088654 397.92028351 179.1754303 397.34620667 C181.91582297 394.58392413 184.53729664 391.77339033 187.06021118 388.81082153 C192.55595335 382.47216086 198.60656153 376.65487784 204.55102539 370.7421875 C205.92184711 369.3749269 207.29243091 368.00742772 208.66279602 366.63970947 C211.60186343 363.70716592 214.54243193 360.77613899 217.48414803 357.84625244 C222.13963809 353.20913386 226.79071101 348.56760179 231.44102478 343.92529297 C244.66111037 330.72930057 257.88710936 317.53924439 271.11743164 304.35351562 C278.43383356 297.06169627 285.74660986 289.76626015 293.05554765 282.466959 C297.67361738 277.85541396 302.29614802 273.24840321 306.92207921 268.64474487 C309.80232183 265.77626707 312.67834052 262.90358295 315.55320549 260.02971649 C316.88251003 258.70255157 318.21352693 257.37709911 319.54641724 256.05353546 C332.22076283 244.76898193 332.22076283 244.76898193 338.23828125 229.78515625 C338.16245866 224.81594718 336.79825608 220.48062327 335.1875 215.8125 C334.72380005 214.45535889 334.72380005 214.45535889 334.25073242 213.07080078 C325.46187865 188.2509586 312.15441078 166.24378955 295 146.375 C294.23171875 145.47652344 293.4634375 144.57804687 292.671875 143.65234375 C290.49665343 141.17500807 288.27002088 138.76584458 286 136.375 C285.49919922 135.84696777 284.99839844 135.31893555 284.48242188 134.77490234 C256.0067156 104.96282142 217.98888216 82.43526449 175.9765625 81.1171875 C157.20132825 80.734672 142.4964531 82.16933687 125.47558594 90.06396484 C120.20048976 92.45411811 116.70705668 93.38754231 111 92.375 C107.22752142 90.07622694 103.78426954 87.44400379 100.31030273 84.72192383 C51.98562985 47.4810773 -28.06185577 33.16128206 -74 81.375 Z " fill="#FEFEFE" transform="translate(392,268.625)"/>
<path d="M0 0 C2.6487708 -0.00187378 5.29753875 -0.00413779 7.94630855 -0.00686532 C13.65071411 -0.01195866 19.35511121 -0.01344727 25.05951881 -0.01240921 C33.54283008 -0.01086931 42.02613215 -0.01507857 50.50944162 -0.02028384 C66.54768663 -0.02990138 82.58592841 -0.03276592 98.62417597 -0.03334089 C111.01318347 -0.03380213 123.40218973 -0.03586924 135.79119682 -0.03904152 C139.369575 -0.03993917 142.94795318 -0.04082899 146.52633137 -0.0417164 C147.41613915 -0.04193744 148.30594694 -0.04215849 149.22271861 -0.04238624 C174.21239325 -0.04853069 199.20206746 -0.05248777 224.1917429 -0.05204296 C225.60185587 -0.05201959 225.60185587 -0.05201959 227.04045598 -0.05199575 C231.80416472 -0.05191266 236.56787346 -0.05181362 241.3315822 -0.05171105 C242.75049223 -0.05168113 242.75049223 -0.05168113 244.1980671 -0.05165061 C246.11098018 -0.05161017 248.02389327 -0.05156837 249.93680635 -0.05152521 C279.70795207 -0.05091227 309.47908641 -0.05842657 339.25022888 -0.07209778 C372.76512729 -0.08748214 406.28001822 -0.09606269 439.79492038 -0.09513456 C443.37298421 -0.09505993 446.95104804 -0.09501122 450.52911186 -0.09498024 C451.41000281 -0.09496859 452.29089376 -0.09495693 453.19847838 -0.09494492 C467.3243977 -0.09491425 481.45030706 -0.10127759 495.57622342 -0.1099125 C509.78545443 -0.11841844 523.99467099 -0.11935591 538.20390315 -0.11280318 C546.62582107 -0.10912795 555.04769486 -0.11087883 563.46960804 -0.12074552 C569.11565088 -0.12679689 574.76166216 -0.12539363 580.40770362 -0.11827503 C583.61069281 -0.11443661 586.81358204 -0.11463375 590.01656801 -0.12173238 C602.5768154 -0.14769956 615.06083039 0.08054132 627.59120083 1.00072765 C628.63164799 1.07510078 629.67209515 1.1494739 630.74407101 1.22610076 C640.9764382 2.06365839 650.73800487 4.33311473 660.59324646 7.13371277 C661.58880554 7.40900818 661.58880554 7.40900818 662.60447693 7.68986511 C669.54407453 9.62289558 676.11523234 11.98831863 682.59324646 15.13371277 C683.2107074 15.41730652 683.82816833 15.70090027 684.46434021 15.99308777 C702.13045472 24.36704641 720.94177746 37.16688488 732.59324646 53.13371277 C732.59324646 53.79371277 732.59324646 54.45371277 732.59324646 55.13371277 C733.18105896 55.35543152 733.76887146 55.57715027 734.37449646 55.80558777 C737.27478666 57.54167697 738.35836486 59.49750065 740.09324646 62.38371277 C741.87989738 65.32356565 743.65755214 68.22766912 745.60105896 71.06730652 C756.79412456 88.29584867 762.74878423 109.71682648 764.94773865 129.93083191 C765.31998842 133.65241965 765.31998842 133.65241965 766.59324646 137.13371277 C766.68722326 138.70183469 766.71772719 140.27394676 766.71744496 141.84488213 C766.71969225 142.84703509 766.72193954 143.84918805 766.72425494 144.88170928 C766.72031442 146.54876488 766.72031442 146.54876488 766.71629429 148.24949837 C766.71744813 149.42691414 766.71860198 150.60432991 766.71979079 151.81742495 C766.72199444 155.11028205 766.71967182 158.40308166 766.71551265 161.69593332 C766.71209182 165.26890138 766.71444669 168.84186619 766.71609014 172.41483486 C766.71816873 178.68503025 766.71651187 184.95521617 766.71245193 191.22541046 C766.70643161 200.54904675 766.70611476 209.87267703 766.70699392 219.1963149 C766.70830972 234.87805681 766.70495924 250.55979451 766.69897652 266.24153519 C766.69306548 281.77507167 766.68921178 297.30860641 766.6881237 312.84214401 C766.68805496 313.80690389 766.68798622 314.77166377 766.6879154 315.7656588 C766.68757708 320.66491214 766.68727569 325.56416548 766.68698853 330.46341883 C766.68488646 365.19157139 766.67814449 399.91972166 766.66868591 434.64787292 C766.65950593 468.39201343 766.65242014 502.1361533 766.6481781 535.8802948 C766.64798081 537.43969459 766.64798081 537.43969459 766.64777954 539.03059741 C766.64646105 549.47040452 766.64518523 559.91021162 766.64394068 570.35001873 C766.64140426 591.61832002 766.63858301 612.88662126 766.6355896 634.15492249 C766.63545231 635.1328682 766.63531502 636.11081391 766.63517357 637.11839434 C766.6259683 702.45683477 766.61012257 767.79527393 766.59324646 833.13371277 C765.93324646 833.46371277 765.27324646 833.79371277 764.59324646 834.13371277 C764.59394837 833.24141932 764.59394837 833.24141932 764.59466447 832.33109974 C764.64552388 767.54124454 764.69263732 702.75138708 764.72027588 637.96151733 C764.72069005 636.99310737 764.72110422 636.0246974 764.72153094 635.02694167 C764.73051049 613.97879485 764.73882092 592.93064781 764.74644245 571.88250046 C764.75018433 561.55990647 764.75407401 551.23731253 764.75804138 540.91471863 C764.75843366 539.88751795 764.75882594 538.86031728 764.7592301 537.80198931 C764.77200517 504.53101979 764.79453239 471.26006559 764.82213812 437.98910535 C764.85046424 403.78765605 764.86890936 369.58621522 764.87499143 335.38475439 C764.87585584 330.5496821 764.87683275 325.71460984 764.87787819 320.87953758 C764.87808046 319.92796278 764.87828273 318.97638799 764.87849113 317.99597759 C764.88203085 302.70249796 764.89593038 287.4090446 764.91374256 272.11557567 C764.93144443 256.72579692 764.93814037 241.33604411 764.93375059 225.94625554 C764.93147569 216.81243214 764.93749069 207.67870398 764.95563909 198.54489784 C764.96695497 192.42974964 764.96719129 186.31466323 764.9587419 180.19951062 C764.95424735 176.72398545 764.95426171 173.24863934 764.96789601 169.77313397 C765.01794261 154.29373481 764.41924379 139.37378766 761.59324646 124.13371277 C761.36895638 122.92244881 761.36895638 122.92244881 761.14013519 121.68671487 C754.39850918 85.94177166 735.52573412 52.4531062 705.36326599 31.35783386 C697.72381685 26.17103961 689.75835736 21.85464109 681.3891449 17.96818542 C679.82675636 17.24221424 678.27534213 16.4927157 676.72605896 15.73918152 C670.32937663 12.81895697 663.66987855 10.87202454 656.90574646 9.00871277 C656.06519714 8.76685242 655.22464783 8.52499207 654.35862732 8.27580261 C633.90776245 2.90880705 612.5655437 2.69512775 591.5716095 2.75949097 C588.83167622 2.75840982 586.09175602 2.75280854 583.35182822 2.74744731 C577.44210698 2.73824108 571.53247127 2.73993241 565.62275124 2.74917984 C556.83429116 2.76289349 548.0458956 2.75917709 539.25743063 2.75222124 C523.55365874 2.74034666 507.84992723 2.74534102 492.14615761 2.75749951 C478.4041788 2.76806576 464.6622137 2.77257118 450.92023087 2.77120399 C450.00613931 2.77111996 449.09204776 2.77103593 448.15025646 2.77094936 C444.43901179 2.77059707 440.72776713 2.77021305 437.01652248 2.76978378 C402.25560365 2.76582537 367.49470904 2.77850552 332.73379713 2.79931034 C301.89559966 2.81768067 271.05742538 2.82349115 240.21922302 2.81803894 C238.2386112 2.8176925 236.25799937 2.81734641 234.27738754 2.81700065 C233.29817874 2.81682965 232.31896993 2.81665866 231.31008813 2.81648248 C226.38017907 2.81562885 221.45027001 2.81480507 216.52036095 2.81401348 C215.54762077 2.8138564 214.5748806 2.81369932 213.57266345 2.81353748 C187.75156536 2.80954184 161.93046948 2.81503047 136.10937274 2.82352477 C133.32896249 2.82443175 130.54855224 2.8253374 127.76814199 2.82624 C125.92394571 2.82684111 124.07974943 2.82744973 122.23555316 2.82806591 C109.41328382 2.83227648 96.59101887 2.83287007 83.76874907 2.83096042 C67.2409483 2.82851095 50.71317101 2.83264159 34.18537663 2.84817042 C25.45845763 2.85618234 16.73157769 2.85885075 8.00465641 2.85352806 C2.15906084 2.85052836 -3.68650051 2.85492462 -9.53208791 2.86507664 C-12.85155674 2.87064695 -16.17088221 2.87217318 -19.49036093 2.86691006 C-33.64537037 2.84651949 -47.58151941 3.26512545 -61.66811693 4.70537788 C-65.60786644 5.09906002 -69.44937701 5.21871427 -73.40675354 5.13371277 C-73.07675354 4.47371277 -72.74675354 3.81371277 -72.40675354 3.13371277 C-69.92283291 2.65264966 -67.54327073 2.32108279 -65.03175354 2.07121277 C-63.89061167 1.95680403 -63.89061167 1.95680403 -62.72641644 1.84008401 C-55.80748283 1.19645664 -48.89918691 0.83270437 -41.95561314 0.58347607 C-40.78129552 0.54107194 -39.60697791 0.49866781 -38.39707491 0.45497872 C-25.59768491 0.02638612 -12.80527066 -0.00875018 0 0 Z " fill="#FDFDFE" transform="translate(227.40675354003906,27.866287231445313)"/>
<path d="M0 0 C26.74111789 0.70709687 53.89361878 17.38217664 73 35 C74.32451172 36.21816406 74.32451172 36.21816406 75.67578125 37.4609375 C103.05185282 63.77262059 117.7739389 103.0298844 119.09281756 140.6473728 C119.12772754 143.64186276 119.13247231 146.63491372 119.12584114 149.62960243 C119.12729458 150.77754209 119.12874802 151.92548175 119.13024551 153.10820746 C119.13325952 156.28580202 119.1318165 159.46335798 119.12846755 162.64095102 C119.12592539 166.1012537 119.12919293 169.56155178 119.13171089 173.0218538 C119.13531987 179.0835869 119.13521466 185.14531109 119.13266373 191.2070446 C119.12888074 200.22096548 119.13081524 209.23487884 119.13387203 218.24879967 C119.13913811 234.34722783 119.13868128 250.44565203 119.13579312 266.54408057 C119.13327826 280.63078086 119.13262054 294.71747968 119.13381577 308.80418015 C119.13389215 309.73832969 119.13396854 310.67247924 119.13404724 311.63493635 C119.13435857 315.42686526 119.13467697 319.21879417 119.135007 323.01072308 C119.1380663 358.58471333 119.13529197 394.15870104 119.1299101 429.7326909 C119.12516368 461.34686039 119.12558974 492.96102586 119.13037109 524.57519531 C119.13572394 560.08685378 119.13785012 595.59851 119.13475883 631.11016881 C119.13443811 634.89459634 119.13412527 638.67902386 119.13381577 642.46345139 C119.13373669 643.3952875 119.13365761 644.32712361 119.13357614 645.28719717 C119.132438 659.36737507 119.13377015 673.44755136 119.13629532 687.52772903 C119.13915153 703.53372715 119.1384462 719.53972067 119.13301457 735.54571821 C119.13007401 744.50697637 119.12989279 753.46822459 119.13366075 762.42948249 C119.13589892 768.41142183 119.13451519 774.39335318 119.13015598 780.37529133 C119.1277719 783.78600766 119.12697489 787.1967042 119.13056196 790.60741992 C119.13358488 794.27899246 119.13050163 797.95051021 119.12584114 801.62207985 C119.12818231 802.6840513 119.13052347 803.74602275 119.13293558 804.84017515 C119.11975874 810.0034069 118.89776649 814.91244606 118 820 C117.67 820 117.34 820 117 820 C116.07541841 813.73758229 115.8589504 807.65853717 115.87415886 801.33360767 C115.87270542 800.27756009 115.87125198 799.2215125 115.86975449 798.13346347 C115.86610026 794.58878314 115.86957838 791.04414597 115.87301636 787.49946594 C115.87186427 784.93425782 115.87027615 782.36904986 115.86828911 779.80384225 C115.86467913 774.22263136 115.86478597 768.64143014 115.86733627 763.06021881 C115.87111916 754.7587774 115.86918453 746.45734415 115.86612797 738.15590279 C115.86085869 723.31892042 115.86132065 708.48194235 115.86420688 693.64495957 C115.86672454 680.63761101 115.8673782 667.63026402 115.86618423 654.62291527 C115.86610785 653.75937002 115.86603146 652.89582477 115.86595276 652.00611149 C115.8656414 648.50010483 115.86532299 644.99409818 115.864993 641.48809153 C115.86193188 608.57133298 115.864709 575.65457715 115.8700899 542.73781902 C115.87482012 513.58050092 115.87442425 484.4231872 115.86962891 455.26586914 C115.86425219 422.46435055 115.86216453 389.6628344 115.86524117 356.86131543 C115.86556183 353.35029964 115.86587468 349.83928384 115.86618423 346.32826805 C115.86626331 345.46385559 115.86634239 344.59944312 115.86642386 343.70883634 C115.86755382 330.74468023 115.86624488 317.78052588 115.86370468 304.81637001 C115.86082045 290.02318733 115.86161183 275.2300096 115.86698543 260.43682752 C115.86963152 252.90732866 115.87079968 245.37783784 115.86733627 237.84833908 C115.85307063 204.8866835 116.05735165 171.95015967 117 139 C116.34 138.67 115.68 138.34 115 138 C115.061875 136.700625 115.12375 135.40125 115.1875 134.0625 C115.17645502 126.23160607 113.57416442 118.63786632 112 111 C111.86609863 110.33693848 111.73219727 109.67387695 111.59423828 108.99072266 C105.99404297 82.02153968 92.21902074 53.53770331 70.4375 36 C69.633125 35.34 68.82875 34.68 68 34 C68 33.34 68 32.68 68 32 C67.45214844 31.75121094 66.90429688 31.50242187 66.33984375 31.24609375 C63.53880204 29.75438706 61.12116967 27.94157613 58.5625 26.0625 C46.31013196 17.36802767 32.49009667 10.03636496 18 6 C16.43499683 5.46560867 14.87234085 4.92427729 13.3125 4.375 C8.94428941 2.91092942 4.51320156 1.90690811 0 1 C0 0.67 0 0.34 0 0 Z " fill="#5D95F4" transform="translate(874,35)"/>
<path d="M0 0 C0.33 0 0.66 0 1 0 C0.89427987 1.03149535 0.89427987 1.03149535 0.78642398 2.08382899 C-0.3087701 14.63200295 -0.15035383 27.19628009 -0.14707164 39.78196594 C-0.14724274 43.32141019 -0.15316665 46.8608459 -0.1583125 50.40028578 C-0.16759229 57.40636185 -0.17155269 64.41243161 -0.17383147 71.41851305 C-0.17680558 79.81633593 -0.18550986 88.21415054 -0.19424575 96.61196905 C-0.21503978 116.9030317 -0.22555122 137.19409577 -0.23437535 157.48516659 C-0.23858829 167.09120514 -0.24380934 176.69724308 -0.24905988 186.30328112 C-0.26694397 219.21088571 -0.28193907 252.11849049 -0.28938007 285.02609921 C-0.28985482 287.09001534 -0.29033071 289.15393148 -0.29080774 291.21784762 C-0.29104411 292.24131624 -0.29128049 293.26478486 -0.29152403 294.31926769 C-0.29272517 299.50426765 -0.29394064 304.68926762 -0.29516602 309.87426758 C-0.29552624 311.41770476 -0.29552624 311.41770476 -0.29589374 312.99232249 C-0.30378578 346.34976583 -0.3272188 379.70717362 -0.35972196 413.06460144 C-0.39405522 448.36490603 -0.41373432 483.66518982 -0.41702431 518.96551138 C-0.41744183 522.84395159 -0.41792139 526.72239179 -0.41844749 530.60083199 C-0.41857069 531.55575353 -0.41869388 532.51067508 -0.4188208 533.49453365 C-0.42114814 548.82962761 -0.43678163 564.16468008 -0.45728934 579.49975927 C-0.477591 594.92595855 -0.4830041 610.35210823 -0.47351871 625.7783184 C-0.46832107 634.92959297 -0.4740987 644.08070184 -0.49605338 653.2319524 C-0.50963925 659.36079053 -0.50841641 665.4895156 -0.49565142 671.61835505 C-0.48880622 675.09985008 -0.48790506 678.58103018 -0.50521151 682.06249606 C-0.67184684 723.21409764 8.67302173 762.97963691 37 794 C37.60070312 794.57234375 38.20140625 795.1446875 38.8203125 795.734375 C40 797 40 797 40 799 C26.36916501 793.63500316 15.65268612 769.92806341 9.95849609 757.26464844 C4.88861399 745.28598659 1.39278638 733.03393919 -0.4921875 720.17578125 C-0.81912847 717.11142857 -0.81912847 717.11142857 -2 715 C-2.99379216 708.03679915 -3.14111257 701.20383091 -3.12584114 694.178545 C-3.12729458 693.00985487 -3.12874802 691.84116473 -3.13024551 690.63705975 C-3.13326008 687.40124162 -3.13181601 684.16546138 -3.12846755 680.92964473 C-3.1259258 677.40616727 -3.12919278 673.88269434 -3.13171089 670.35921752 C-3.13532022 664.18644492 -3.13521444 658.01368106 -3.13266373 651.84090805 C-3.12888099 642.66165933 -3.13081514 633.48241798 -3.13387203 624.30316931 C-3.13913859 607.90839629 -3.13868102 591.51362717 -3.13579312 575.11885378 C-3.13327806 560.77030472 -3.13262063 546.42175709 -3.13381577 532.07320786 C-3.13389215 531.1216163 -3.13396854 530.17002474 -3.13404724 529.18959708 C-3.13435857 525.32680281 -3.13467697 521.46400853 -3.135007 517.60121426 C-3.13806652 481.35931977 -3.1352918 445.11742777 -3.1299101 408.87553366 C-3.12516521 376.67727502 -3.12558843 344.47902033 -3.13037109 312.28076172 C-3.13572611 276.10837839 -3.13784878 239.93599725 -3.13475883 203.76361358 C-3.13443811 199.90721695 -3.13412527 196.05082031 -3.13381577 192.19442368 C-3.13373669 191.2448763 -3.13365761 190.29532893 -3.13357614 189.31700739 C-3.13243875 174.97891705 -3.13376881 160.64082831 -3.13629532 146.30273819 C-3.13915407 129.99785044 -3.13844085 113.6929672 -3.13301457 97.38808002 C-3.13007798 88.26325091 -3.12988707 79.13843156 -3.13366075 70.01360271 C-3.13590375 63.91752607 -3.13450642 57.82145725 -3.13015598 51.72538177 C-3.1277786 48.25275636 -3.126961 44.78015033 -3.13056196 41.30752553 C-3.1335993 37.5627108 -3.13048682 33.81794924 -3.12584114 30.07313728 C-3.12818231 29.0008174 -3.13052347 27.92849751 -3.13293558 26.82368308 C-3.11026197 17.68904965 -2.90750339 8.72251018 0 0 Z " fill="#E4D4FE" transform="translate(33,151)"/>
<path d="M0 0 C0.33 0 0.66 0 1 0 C1.19551338 1.60320974 1.38111983 3.20762986 1.5625 4.8125 C1.66691406 5.70582031 1.77132812 6.59914062 1.87890625 7.51953125 C2 10 2 10 1 13 C0.90894397 14.55861429 0.87477705 16.12086603 0.87465084 17.68213785 C0.87214732 18.65228838 0.8696438 19.62243891 0.86706442 20.62198794 C0.86940558 21.69240214 0.87174675 22.76281635 0.87415886 23.86566734 C0.87270542 25.00390638 0.87125198 26.14214542 0.86975449 27.31487656 C0.86671987 30.49322355 0.86820078 33.67153261 0.87153245 36.84987818 C0.87405868 40.30053713 0.8708134 43.7511913 0.86828911 47.20184958 C0.86466841 53.25589503 0.86479251 59.30993157 0.86733627 65.36397743 C0.87110866 74.36645605 0.86919027 83.36892711 0.86612797 92.37140567 C0.86085333 108.44757931 0.86132218 124.52374898 0.86420688 140.599923 C0.8667192 154.66942566 0.86738065 168.73892687 0.86618423 182.80842972 C0.86610785 183.74050926 0.86603146 184.6725888 0.86595276 185.63291317 C0.86564144 189.41623857 0.86532304 193.19956397 0.864993 196.98288936 C0.86193157 232.49936104 0.86471122 268.0158302 0.8700899 303.53230149 C0.87483499 335.10519454 0.87441181 366.67808355 0.86962891 398.25097656 C0.86427709 433.69811491 0.86214944 469.14525101 0.86524117 504.5923897 C0.8655619 508.36957272 0.86587474 512.14675573 0.86618423 515.92393875 C0.86626331 516.85402241 0.86634239 517.78410607 0.86642386 518.74237408 C0.86756258 532.80364647 0.86622873 546.86491725 0.86370468 560.92618942 C0.86084955 576.9118954 0.86155139 592.89759679 0.86698543 608.8833022 C0.86992814 617.83606303 0.87010414 626.78881392 0.86633925 635.7415745 C0.86410358 641.71550969 0.86548025 647.68943686 0.86984402 653.66337086 C0.87223165 657.0712618 0.87301783 660.47913291 0.86943804 663.88702326 C0.86642263 667.55225167 0.86949058 671.2174249 0.87415886 674.88265038 C0.87181769 675.94838225 0.86947653 677.01411412 0.86706442 678.11214089 C0.86956793 679.08729846 0.87207145 680.06245603 0.87465084 681.06716383 C0.8747186 681.90551238 0.87478635 682.74386094 0.87485617 683.607614 C1.00807979 686.1544621 1.46555396 688.50937248 2 691 C2.1400363 692.76452396 2.2440078 694.53219044 2.31640625 696.30078125 C2.37924805 697.76547852 2.37924805 697.76547852 2.44335938 699.25976562 C2.48267578 700.26716797 2.52199219 701.27457031 2.5625 702.3125 C2.60568359 703.33923828 2.64886719 704.36597656 2.69335938 705.42382812 C2.79906825 707.94909569 2.90116468 710.47445562 3 713 C-1.86913812 704.4896658 -1.29286531 693.11734739 -1.24888897 683.58592033 C-1.25149625 682.40177618 -1.25410354 681.21763203 -1.25678983 679.99760473 C-1.2619684 676.73710614 -1.25829133 673.47676227 -1.25073375 670.21627303 C-1.24472226 666.65924843 -1.25040433 663.10223844 -1.25455457 659.54521382 C-1.26022297 653.31997757 -1.25850503 647.09477787 -1.2518692 640.86954308 C-1.24202917 631.61278322 -1.24368964 622.35604999 -1.2476195 613.09928701 C-1.25388749 597.52499588 -1.25073139 581.95071992 -1.24202538 566.37643051 C-1.23340832 550.9580458 -1.22850528 535.5396679 -1.22869301 520.12128067 C-1.22870065 519.16187134 -1.2287083 518.20246201 -1.22871618 517.21397967 C-1.22875709 513.31948602 -1.2288227 509.42499238 -1.22892199 505.53049873 C-1.22982769 469.01222853 -1.21988782 432.49396872 -1.20449232 395.97570213 C-1.19085795 363.51504991 -1.18463151 331.05440506 -1.18530273 298.59375 C-1.18534315 296.50801634 -1.18538351 294.42228269 -1.18542381 292.33654903 C-1.18544416 291.30541007 -1.18546452 290.27427111 -1.18548548 289.21188551 C-1.18558627 284.02151557 -1.18567686 278.83114562 -1.18575573 273.64077568 C-1.18577244 272.61684121 -1.18578916 271.59290673 -1.18580638 270.53794394 C-1.18617124 243.42309175 -1.18163642 216.30824048 -1.17542917 189.19338906 C-1.17520889 188.2293837 -1.17498862 187.26537834 -1.17476168 186.2721607 C-1.17387343 182.3955504 -1.17298505 178.51894011 -1.17207072 174.64232983 C-1.16890784 161.14084349 -1.16740109 147.63935787 -1.16695923 134.13787118 C-1.16636304 116.74896697 -1.16238617 99.36006885 -1.15252777 81.97116725 C-1.14740121 72.76909562 -1.14500726 63.56703293 -1.14652396 54.36495994 C-1.14725573 48.22774706 -1.1443746 42.09054292 -1.13848015 35.95333284 C-1.13521538 32.45072229 -1.13355975 28.94813055 -1.13624074 25.44551907 C-1.13828717 21.6822153 -1.13427497 17.91896716 -1.12863445 14.15566826 C-1.13068977 13.05545393 -1.13274509 11.95523959 -1.13486269 10.82168543 C-1.13210295 9.82491636 -1.1293432 8.82814729 -1.12649983 7.80117309 C-1.12620833 6.93979307 -1.12591683 6.07841305 -1.1256165 5.1909306 C-1 3 -1 3 0 0 Z " fill="#8A47FE" transform="translate(33,162)"/>
<path d="M0 0 C0 0.66 0 1.32 0 2 C-4.5656387 3.02274659 -9.13321185 4.03263156 -13.7109375 5 C-14.48050781 5.165 -15.25007813 5.33 -16.04296875 5.5 C-17.62007101 5.83813918 -19.19823871 6.17134074 -20.77734375 6.5 C-21.53917969 6.665 -22.30101562 6.83 -23.0859375 7 C-23.7670459 7.144375 -24.4481543 7.28875 -25.14990234 7.4375 C-27.30678053 7.99603097 -27.30678053 7.99603097 -30 10 C-32.66950434 10.95339441 -35.35745519 11.80880964 -38.07421875 12.6171875 C-43.85253992 14.41219826 -48.81159302 16.90978129 -54 20 C-54.79277344 20.45375 -55.58554688 20.9075 -56.40234375 21.375 C-58.96898792 22.86714069 -61.48889418 24.41624785 -64 26 C-64.80695313 26.50402344 -65.61390625 27.00804688 -66.4453125 27.52734375 C-81.33094654 37.56490432 -95.53168086 52.03149807 -103.5859375 68.1796875 C-105.07341847 71.14643131 -106.85181986 73.48144398 -109 76 C-109.58966074 69.693906 -107.96095239 66.31924441 -104.5 61.125 C-104.04729736 60.42463623 -103.59459473 59.72427246 -103.12817383 59.00268555 C-99.54035044 53.56076478 -95.5981211 48.62905016 -91 44 C-89.6696875 42.63875 -89.6696875 42.63875 -88.3125 41.25 C-87.549375 40.5075 -86.78625 39.765 -86 39 C-85.175 38.175 -84.35 37.35 -83.5 36.5 C-82.675 35.675 -81.85 34.85 -81 34 C-80.30777344 33.24976563 -79.61554688 32.49953125 -78.90234375 31.7265625 C-75.23671196 28.28294071 -71.26135176 25.62396254 -67.0625 22.875 C-66.27681641 22.35035156 -65.49113281 21.82570313 -64.68164062 21.28515625 C-60.56239682 18.56197415 -56.47565673 16.10921754 -52 14 C-50.85337891 13.40058594 -50.85337891 13.40058594 -49.68359375 12.7890625 C-34.35092299 4.84273922 -17.47418675 -1.21208232 0 0 Z " fill="#9960FE" transform="translate(159,33)"/>
<path d="M0 0 C0 3 0 3 -1.72265625 4.98046875 C-2.49480469 5.70878906 -3.26695312 6.43710937 -4.0625 7.1875 C-6.85938052 9.84095075 -9.48518671 12.5367567 -11.97926331 15.47167969 C-16.73202557 20.92462875 -21.86310245 25.99526171 -26.98413086 31.09765625 C-28.07896058 32.19220335 -29.17356907 33.28697177 -30.26797485 34.38194275 C-33.21771154 37.33196452 -36.17050532 40.27890857 -39.12388682 43.22528076 C-42.21798477 46.31309677 -45.30922164 49.40377442 -48.40077209 52.49414062 C-54.24570874 58.33597817 -60.09318819 64.17526348 -65.94160134 70.01362038 C-72.60384076 76.66465441 -79.26321639 83.31855272 -85.92236125 89.97268486 C-99.611739 103.65163041 -113.30468215 117.32700179 -127 131 C-127.66 130.34 -128.32 129.68 -129 129 C-86.43 86.43 -43.86 43.86 0 0 Z " fill="#6786F9" transform="translate(774,534)"/>
<path d="M0 0 C43.86585082 -0.02287667 87.731701 -0.04050348 131.5975566 -0.05106533 C136.77345246 -0.05231607 141.9493483 -0.05361039 147.12524414 -0.05493164 C148.67091996 -0.05532511 148.67091996 -0.05532511 150.24782155 -0.05572652 C166.94425012 -0.06008072 183.64067525 -0.06796691 200.33710178 -0.0771528 C217.46246364 -0.08649626 234.58782369 -0.09205708 251.71318799 -0.09408849 C262.28491115 -0.09546228 272.8566246 -0.09980508 283.42834476 -0.10791647 C290.67258796 -0.11319246 297.91682611 -0.11480234 305.16107108 -0.11350138 C309.34387255 -0.11285934 313.52665703 -0.11386044 317.70945549 -0.11920547 C321.53701756 -0.12406097 325.36455115 -0.12432443 329.19211451 -0.12089889 C330.57846674 -0.12047533 331.96482073 -0.12175293 333.35116949 -0.12488318 C335.2330315 -0.12888597 337.11490427 -0.12614001 338.996768 -0.12304783 C340.04289751 -0.12342755 341.08902702 -0.12380727 342.16685742 -0.1241985 C344.88293471 -0.00513187 347.35561101 0.38730277 350 1 C350 1.66 350 2.32 350 3 C343.47453224 3.12548976 343.47453224 3.12548976 341.12728 2.50476032 C338.4441221 1.86810147 335.97204164 1.8684654 333.21352005 1.8613348 C332.02468476 1.85586036 330.83584946 1.85038591 329.61098886 1.84474558 C328.30360875 1.84376747 326.99622864 1.84278936 325.64923096 1.84178162 C324.24746997 1.83721579 322.84571035 1.83221574 321.44395232 1.82681805 C317.58785917 1.81322985 313.73177484 1.80581661 309.875664 1.79939139 C305.71890239 1.79139045 301.56215916 1.77769162 297.40541077 1.76467896 C290.202167 1.74291187 282.99892138 1.72476822 275.79566193 1.70907402 C265.38091192 1.68637752 254.96618226 1.65823438 244.55144951 1.62875474 C227.65491412 1.58107614 210.75837042 1.53781268 193.86181641 1.49731445 C177.44677076 1.45796089 161.03173251 1.416535 144.61669922 1.37231445 C143.60515861 1.36959018 142.593618 1.36686591 141.55142465 1.36405908 C136.47690694 1.35037963 131.40238934 1.33665935 126.3278718 1.32291877 C84.21859659 1.20894978 42.10930545 1.10214135 0 1 C0 0.67 0 0.34 0 0 Z " fill="#696EFD" transform="translate(512,31)"/>
<path d="M0 0 C0 0.33 0 0.66 0 1 C-0.55236328 1.12004395 -1.10472656 1.24008789 -1.67382812 1.36376953 C-30.97746899 7.81566892 -55.43392267 18.89733543 -78 39 C-78.66773437 39.59425781 -79.33546875 40.18851563 -80.0234375 40.80078125 C-89.43280137 49.70212782 -96.49671587 60.90081954 -103 72 C-103.33 71.01 -103.66 70.02 -104 69 C-102.61358186 66.33496297 -101.18742889 63.88866551 -99.5625 61.375 C-99.10528564 60.65658936 -98.64807129 59.93817871 -98.17700195 59.19799805 C-94.58531297 53.6633359 -90.65562177 48.68693761 -86 44 C-84.6696875 42.63875 -84.6696875 42.63875 -83.3125 41.25 C-82.549375 40.5075 -81.78625 39.765 -81 39 C-80.175 38.175 -79.35 37.35 -78.5 36.5 C-77.675 35.675 -76.85 34.85 -76 34 C-75.30777344 33.24976563 -74.61554688 32.49953125 -73.90234375 31.7265625 C-70.23671196 28.28294071 -66.26135176 25.62396254 -62.0625 22.875 C-61.27681641 22.35035156 -60.49113281 21.82570313 -59.68164062 21.28515625 C-55.56239682 18.56197415 -51.47565673 16.10921754 -47 14 C-45.85337891 13.40058594 -45.85337891 13.40058594 -44.68359375 12.7890625 C-35.19458466 7.8712804 -25.50892797 4.19170628 -15.125 1.6875 C-14.42366943 1.51597412 -13.72233887 1.34444824 -12.99975586 1.16772461 C-8.5660462 0.15663859 -4.54609352 -0.16024089 0 0 Z " fill="#F8F4FE" transform="translate(154,33)"/>
<path d="M0 0 C0.33 0 0.66 0 1 0 C0.46217121 35.44780629 -17.37481784 67.33074986 -42 92 C-44.2754994 94.1107747 -46.57005766 96.06709132 -49 98 C-49.66 97.67 -50.32 97.34 -51 97 C-49.80117188 95.96166016 -49.80117188 95.96166016 -48.578125 94.90234375 C-20.25821141 69.8763529 -5.51871362 36.93665345 0 0 Z " fill="#F1F5FD" transform="translate(991,862)"/>
<path d="M0 0 C0.33 0 0.66 0 1 0 C1.09498779 0.6077124 1.18997559 1.2154248 1.2878418 1.84155273 C6.34832653 33.72711143 15.7216884 65.77345419 39.8203125 88.734375 C41 90 41 90 41 92 C27.36916501 86.63500316 16.65268612 62.92806341 10.95849609 50.26464844 C5.45048527 37.25081542 1.93591208 23.96835026 0 10 C-0.20882813 8.74960937 -0.41765625 7.49921875 -0.6328125 6.2109375 C-1 3 -1 3 0 0 Z " fill="#F6F1FE" transform="translate(32,858)"/>
<path d="M0 0 C19.34083121 -0.02335688 38.68165956 -0.04099291 58.02250195 -0.05181217 C67.00271768 -0.05696919 75.98292465 -0.0640006 84.96313477 -0.07543945 C92.7899723 -0.08540441 100.6168035 -0.09185776 108.44364721 -0.09408849 C112.58815853 -0.09539251 116.7326517 -0.09845892 120.87715721 -0.10573006 C124.77832707 -0.11251882 128.67947131 -0.11461113 132.58064651 -0.11310768 C134.01211117 -0.11338272 135.44357669 -0.11537091 136.87503624 -0.11920547 C138.83072158 -0.12418723 140.78642068 -0.1223872 142.74211121 -0.12025452 C143.83627948 -0.12117631 144.93044775 -0.1220981 146.05777264 -0.12304783 C148.81716268 -0.0076465 151.31529828 0.37304556 154 1 C154 1.66 154 2.32 154 3 C147.47380057 3.12550384 147.47380057 3.12550384 145.13499069 2.5059824 C142.41323458 1.86093945 139.88795006 1.8589611 137.09014893 1.84178162 C135.88142624 1.8319928 134.67270355 1.82220398 133.42735291 1.81211853 C132.09121744 1.80621481 130.75508155 1.80040433 129.41894531 1.79467773 C128.00950332 1.78509573 126.60006419 1.77508546 125.19062805 1.76467896 C121.36662498 1.73765872 117.54260961 1.71663357 113.71856403 1.69667697 C109.72134983 1.67479964 105.72417344 1.6474195 101.72698975 1.62062073 C94.15875144 1.57071747 86.59049212 1.52576986 79.02221274 1.48259836 C70.40557217 1.43320576 61.78896954 1.37829513 53.17236567 1.32291877 C35.44827901 1.20913507 17.72415654 1.10228816 0 1 C0 0.67 0 0.34 0 0 Z " fill="#5C77FA" transform="translate(708,31)"/>
<path d="M0 0 C0.66 0 1.32 0 2 0 C3.62109375 1.64453125 3.62109375 1.64453125 5.4375 3.8125 C7.84467191 6.68747998 7.84467191 6.68747998 10.43261719 9.39501953 C12.07597824 11.07780077 13.43962623 12.8279083 14.83203125 14.72265625 C16.80847659 17.39344602 18.79706428 20.05106402 20.82421875 22.68359375 C32.51416725 37.95659846 42.43397812 53.77517004 51 71 C51.35642578 71.71559082 51.71285156 72.43118164 52.08007812 73.16845703 C55.45715645 80.0107253 58.3040961 86.53965353 60 94 C57.41587218 92.70793609 57.30652027 91.73640903 56.2578125 89.08203125 C55.92015869 88.25074707 55.58250488 87.41946289 55.23461914 86.56298828 C54.86844482 85.65532715 54.50227051 84.74766602 54.125 83.8125 C41.7526626 54.11991254 23.42010058 28.08569297 2.4375 3.875 C0 1 0 1 0 0 Z " fill="#5C7FFA" transform="translate(717,368)"/>
<path d="M0 0 C0.33 0 0.66 0 1 0 C3.17978105 30.33528633 -12.3968564 62.61105756 -31.5 85.1875 C-32.325 86.115625 -33.15 87.04375 -34 88 C-34 84.89448334 -33.4606285 83.64738916 -32 81 C-31.34 81 -30.68 81 -30 81 C-30 80.34 -30 79.68 -30 79 C-29.01 78.505 -29.01 78.505 -28 78 C-27.67 77.01 -27.34 76.02 -27 75 C-26.34 75 -25.68 75 -25 75 C-24.62875 73.6696875 -24.62875 73.6696875 -24.25 72.3125 C-22.94729689 68.86033676 -21.28493775 66.85617219 -19 64 C-17.74443113 60.82078213 -17.74443113 60.82078213 -17 58 C-16.34 58 -15.68 58 -15 58 C-14.80664062 57.14535156 -14.61328125 56.29070313 -14.4140625 55.41015625 C-14.02347656 53.75306641 -14.02347656 53.75306641 -13.625 52.0625 C-13.24214844 50.40927734 -13.24214844 50.40927734 -12.8515625 48.72265625 C-12.57054687 47.82417969 -12.28953125 46.92570313 -12 46 C-11.01 45.505 -11.01 45.505 -10 45 C-9.25291376 42.98636911 -8.60119076 40.93689643 -8 38.875 C-7.67 37.75867188 -7.34 36.64234375 -7 35.4921875 C-6.67 34.33976563 -6.34 33.18734375 -6 32 C-5.67257812 30.97003906 -5.34515625 29.94007813 -5.0078125 28.87890625 C-3.44171199 23.38682775 -2.73991101 17.69723505 -1.875 12.0625 C-1.69324219 10.90169922 -1.51148438 9.74089844 -1.32421875 8.54492188 C-0.87889605 5.69720041 -0.43760868 2.84891529 0 0 Z " fill="#4D8AF4" transform="translate(990,856)"/>
<path d="M0 0 C2.91892309 1.30286696 4.75966512 2.62167754 6.875 5 C26.78623082 25.24587335 55.83527387 35.33481748 83 41 C83 41.33 83 41.66 83 42 C53.43723905 41.37342896 25.19841622 24.33461533 3.41796875 5.53515625 C1.83407067 3.8203575 0.94134382 2.12605945 0 0 Z " fill="#F7F3FE" transform="translate(73,950)"/>
<path d="M0 0 C0.66 0.66 1.32 1.32 2 2 C-13.18 17.18 -28.36 32.36 -44 48 C-44.66 47.34 -45.32 46.68 -46 46 C-30.82 30.82 -15.64 15.64 0 0 Z " fill="#7188FB" transform="translate(691,617)"/>
<path d="M0 0 C0 4.17390462 -1.66461482 5.16447904 -4.5 8.1875 C-4.98122314 8.70143311 -5.46244629 9.21536621 -5.95825195 9.74487305 C-10.29500621 14.33796711 -14.73427598 18.83264437 -19.1875 23.3125 C-19.83976563 23.96951904 -20.49203125 24.62653809 -21.1640625 25.3034668 C-25.06013865 29.18631431 -29.07632373 32.86781731 -33.23950195 36.4621582 C-35.2419868 38.21138189 -37.13954598 40.03828652 -39 41.9375 C-39.86625 42.81728516 -39.86625 42.81728516 -40.75 43.71484375 C-41.36875 44.35099609 -41.36875 44.35099609 -42 45 C-42.66 44.67 -43.32 44.34 -44 44 C-29.48 29.48 -14.96 14.96 0 0 Z " fill="#6B73FD" transform="translate(574,735)"/>
<path d="M0 0 C3.52108635 2.65454517 6.238847 5.33364237 8.9375 8.8125 C13.36501299 14.34503717 18.11556501 19.49837949 22.97729492 24.65039062 C25.96703157 27.82015355 28.91902351 30.9985133 31.75 34.3125 C35.18096591 38.32112853 38.96369095 41.9511253 42.765625 45.60546875 C44.94175568 47.93758082 46.47367932 50.21000473 48 53 C44.12521567 51.444754 41.99475118 49.03600017 39.25 45.9375 C38.27614345 44.84900277 37.30079146 43.76184227 36.32421875 42.67578125 C35.79489746 42.08619629 35.26557617 41.49661133 34.72021484 40.88916016 C32.2266409 38.15068795 29.67166338 35.47223595 27.11938477 32.78857422 C19.47174729 24.7442581 12.11899173 16.51444494 5 8 C4.287229 7.18088135 4.287229 7.18088135 3.56005859 6.34521484 C0 2.21574667 0 2.21574667 0 0 Z " fill="#8567FE" transform="translate(315,600)"/>
<path d="M0 0 C4.52010733 1.42060516 6.71997473 3.64542871 10 7 C21.8426703 17.20734617 21.8426703 17.20734617 36 23 C36 23.66 36 24.32 36 25 C36.94875 25.28875 37.8975 25.5775 38.875 25.875 C42 27 42 27 44 29 C39.0719097 28.3912359 35.18494876 26.25297919 30.875 23.9375 C30.12017334 23.53337891 29.36534668 23.12925781 28.58764648 22.71289062 C4.8900013 9.78000259 4.8900013 9.78000259 0 0 Z " fill="#965EFE" transform="translate(76,951)"/>
<path d="M0 0 C0.66 0.33 1.32 0.66 2 1 C-20.39115411 16.59087768 -20.39115411 16.59087768 -27.4375 15.6875 C-27.953125 15.460625 -28.46875 15.23375 -29 15 C-24.79066147 11.49221789 -19.5744558 8 -14 8 C-14 7.34 -14 6.68 -14 6 C-12.7625 5.9071875 -12.7625 5.9071875 -11.5 5.8125 C-7.52822345 4.89048044 -5.0346009 3.27621226 -1.734375 0.9609375 C-1.16203125 0.64382813 -0.5896875 0.32671875 0 0 Z " fill="#B1C9FA" transform="translate(929,967)"/>
<path d="M0 0 C0.6875 1.6875 0.6875 1.6875 1 4 C0.00324895 5.66861173 -0.99771828 7.33470449 -2 9 C-3.41743301 12.04116604 -4.683783 15.13826491 -5.9375 18.25 C-6.46537109 19.55952637 -6.46537109 19.55952637 -7.00390625 20.89550781 C-10.2092785 29.09591848 -12.30200501 37.37597284 -14 46 C-14.33 46 -14.66 46 -15 46 C-14.4613837 32.8039006 -10.30984424 20.9825485 -5 9 C-4.39418854 7.58403592 -3.78972207 6.1674944 -3.1875 4.75 C-2.5996875 3.38875 -2.5996875 3.38875 -2 2 C-1.34 2 -0.68 2 0 2 C0 1.34 0 0.68 0 0 Z " fill="#F9F5FE" transform="translate(49,105)"/>
<path d="M0 0 C4.32201955 1.49174182 7.82831189 3.77340338 11.5 6.4375 C12.40770142 7.08924194 12.40770142 7.08924194 13.33374023 7.75415039 C18.30881679 11.37972532 23.02615601 15.26807874 27.6484375 19.33178711 C29.95795221 21.34925562 32.180512 23.10750715 34.8203125 24.6796875 C37 26 37 26 37.8125 28.1875 C37.874375 28.785625 37.93625 29.38375 38 30 C34.03173426 27.81994737 31.05181789 25.27550542 27.8125 22.125 C21.98258695 16.58908775 15.62908543 11.9416293 9.0559082 7.32861328 C8.31429443 6.8076709 7.57268066 6.28672852 6.80859375 5.75 C6.14657959 5.29109375 5.48456543 4.8321875 4.80249023 4.359375 C3.03487207 3.02629929 1.52317249 1.60302928 0 0 Z " fill="#657DFA" transform="translate(671,330)"/>
<path d="M0 0 C0.33 0 0.66 0 1 0 C1.19551338 1.60320974 1.38111983 3.20762986 1.5625 4.8125 C1.66691406 5.70582031 1.77132812 6.59914062 1.87890625 7.51953125 C2 10 2 10 1 13 C0.88705254 14.39579273 0.82410813 15.79599909 0.79467773 17.19604492 C0.77473251 18.03668991 0.75478729 18.8773349 0.73423767 19.74345398 C0.71752518 20.64666885 0.70081268 21.54988373 0.68359375 22.48046875 C0.66281265 23.40845779 0.64203156 24.33644684 0.62062073 25.29255676 C0.55522677 28.2574624 0.49628738 31.22245672 0.4375 34.1875 C0.39430513 36.1972748 0.35069053 38.20704063 0.30664062 40.21679688 C0.19955573 45.14444032 0.09825955 50.07217299 0 55 C-0.33 55 -0.66 55 -1 55 C-1.02531484 47.64934015 -1.04285202 40.2986915 -1.05493164 32.94799805 C-1.05996641 30.44636617 -1.06679461 27.94473724 -1.07543945 25.44311523 C-1.08754238 21.85139234 -1.09323682 18.25970828 -1.09765625 14.66796875 C-1.10539818 12.98503975 -1.10539818 12.98503975 -1.11329651 11.26811218 C-1.11337204 10.22725967 -1.11344757 9.18640717 -1.11352539 8.11401367 C-1.115746 7.19690109 -1.11796661 6.27978851 -1.12025452 5.33488464 C-1 3 -1 3 0 0 Z " fill="#8B46FE" transform="translate(33,162)"/>
<path d="M0 0 C6.60196104 -0.02537644 13.20390948 -0.04287804 19.8059082 -0.05493164 C22.05135569 -0.05995719 24.29679992 -0.06677865 26.54223633 -0.07543945 C29.77165534 -0.08758281 33.00103105 -0.09324614 36.23046875 -0.09765625 C37.23272995 -0.10281754 38.23499115 -0.10797882 39.2676239 -0.11329651 C40.67852043 -0.11340981 40.67852043 -0.11340981 42.11791992 -0.11352539 C42.94176682 -0.115746 43.76561371 -0.11796661 44.61442566 -0.12025452 C47.15755317 0.0079421 49.51840931 0.44270612 52 1 C52 1.66 52 2.32 52 3 C48.10207433 3.07496011 44.75914195 2.94278177 41 2 C39.5966353 1.89102621 38.18948751 1.82508152 36.78222656 1.79467773 C35.96167786 1.77473251 35.14112915 1.75478729 34.29571533 1.73423767 C33.41953552 1.71752518 32.54335571 1.70081268 31.640625 1.68359375 C30.73624695 1.66281265 29.8318689 1.64203156 28.90008545 1.62062073 C26.01679945 1.5553406 23.1334239 1.49634048 20.25 1.4375 C18.29295956 1.39429429 16.33592812 1.35067935 14.37890625 1.30664062 C9.5860288 1.19968128 4.79306146 1.09835327 0 1 C0 0.67 0 0.34 0 0 Z " fill="#517BF5" transform="translate(810,31)"/>
<path d="M0 0 C0.33 0 0.66 0 1 0 C1.26287197 20.79609367 1.26287197 20.79609367 -4 30 C-4.66 30 -5.32 30 -6 30 C-6.99 32.475 -6.99 32.475 -8 35 C-8.99 35 -9.98 35 -11 35 C-10.61328125 34.42894531 -10.2265625 33.85789062 -9.828125 33.26953125 C-3.14025849 22.85698661 -0.44343253 12.30525281 0 0 Z " fill="#5881F8" transform="translate(786,497)"/>
<path d="M0 0 C-10.7893121 3.48369638 -20.60992999 6.36742161 -32 6 C-28.65022979 4.21297356 -25.76128332 3.56019113 -22 3 C-21.01 2.67 -20.02 2.34 -19 2 C-17.02471384 1.64439293 -15.04488089 1.31365235 -13.0625 1 C-8.89901339 0.3542314 -8.89901339 0.3542314 -4.80859375 -0.625 C-3 -1 -3 -1 0 0 Z " fill="#5186F6" transform="translate(891,986)"/>
<path d="M0 0 C0.6875 1.75 0.6875 1.75 1 4 C0.03542166 5.35917857 -0.96854629 6.69084721 -2 8 C-2.35015049 9.66321482 -2.68197057 11.33034549 -3 13 C-3.98287008 15.00847365 -4.98377342 17.00819591 -6 19 C-6.69971973 20.98867713 -7.37664397 22.98608051 -8 25 C-8.66 25 -9.32 25 -10 25 C-9.26003635 20.00271122 -7.39470548 15.48816898 -5.5625 10.8125 C-5.24990234 9.99330078 -4.93730469 9.17410156 -4.61523438 8.33007812 C-4.15793945 7.15541992 -4.15793945 7.15541992 -3.69140625 5.95703125 C-3.41498291 5.24522705 -3.13855957 4.53342285 -2.85375977 3.80004883 C-2 2 -2 2 0 0 Z " fill="#9A5FFE" transform="translate(49,109)"/>
<path d="M0 0 C0.66 0.33 1.32 0.66 2 1 C1.98259766 1.804375 1.98259766 1.804375 1.96484375 2.625 C1.87096722 10.77884715 2.43520941 18.87104973 3 27 C-1.12573766 19.85796674 -1.45831542 10.09690575 -1 2 C-0.67 1.34 -0.34 0.68 0 0 Z " fill="#9B60FE" transform="translate(33,848)"/>
<path d="M0 0 C0 3 0 3 -1.79296875 5.0859375 C-2.58316406 5.84132813 -3.37335937 6.59671875 -4.1875 7.375 C-5.01121094 8.17035156 -5.83492187 8.96570313 -6.68359375 9.78515625 C-7.44800781 10.51605469 -8.21242188 11.24695313 -9 12 C-9.9075 12.928125 -10.815 13.85625 -11.75 14.8125 C-14.05183165 17.05039188 -16.45931938 19.04004638 -19 21 C-17.54254576 17.63664406 -15.68882146 15.45465995 -13.0859375 12.890625 C-12.32539062 12.13652344 -11.56484375 11.38242187 -10.78125 10.60546875 C-9.9871875 9.82816406 -9.193125 9.05085937 -8.375 8.25 C-7.57320312 7.45722656 -6.77140625 6.66445313 -5.9453125 5.84765625 C-3.96797154 3.89385507 -1.98611091 1.94487897 0 0 Z " fill="#5A80F8" transform="translate(774,534)"/>
<path d="M0 0 C0.33 0 0.66 0 1 0 C1.19430855 2.6246601 1.38073238 5.24946765 1.5625 7.875 C1.61857422 8.62136719 1.67464844 9.36773437 1.73242188 10.13671875 C2.11328125 15.7734375 2.11328125 15.7734375 1 18 C0.34 17.67 -0.32 17.34 -1 17 C-1.02699725 14.72923158 -1.04639453 12.45837179 -1.0625 10.1875 C-1.07990234 8.29064453 -1.07990234 8.29064453 -1.09765625 6.35546875 C-1 3 -1 3 0 0 Z " fill="#5E94F5" transform="translate(990,156)"/>
<path d="M0 0 C3.45984351 6.1212616 0.69199271 12.57042771 -1 19 C-1.33 19 -1.66 19 -2 19 C-2.24991456 12.34949576 -1.73955334 6.43013467 0 0 Z " fill="#9D62FE" transform="translate(36,142)"/>
<path d="M0 0 C0.99 0.33 1.98 0.66 3 1 C0.36 3.64 -2.28 6.28 -5 9 C-5.33 8.01 -5.66 7.02 -6 6 C-4.02 4.02 -2.04 2.04 0 0 Z " fill="#7486FB" transform="translate(641,667)"/>
<path d="M0 0 C0.33 0 0.66 0 1 0 C1.22245393 1.60226955 1.42746669 3.20696767 1.625 4.8125 C1.74101563 5.70582031 1.85703125 6.59914062 1.9765625 7.51953125 C2 10 2 10 0 13 C-1.57170996 9.85658007 -1.23175783 6.44228549 -1 3 C-0.67 2.01 -0.34 1.02 0 0 Z " fill="#A067FE" transform="translate(33,162)"/>
<path d="M0 0 C0.6875 1.6875 0.6875 1.6875 1 4 C-0.3992219 6.79844381 -1.78791383 8.78791383 -4 11 C-4.33 10.34 -4.66 9.68 -5 9 C-4.06421005 6.64018187 -3.06652192 4.30368736 -2 2 C-1.34 2 -0.68 2 0 2 C0 1.34 0 0.68 0 0 Z " fill="#EFE6FE" transform="translate(49,105)"/>
<path d="M0 0 C4.75207471 -0.43200679 7.78210698 1.01510917 12 3 C8.70303895 4.09898702 7.59505097 3.87124444 4.3125 3.0625 C3.10013672 2.77052734 3.10013672 2.77052734 1.86328125 2.47265625 C0.94095703 2.23869141 0.94095703 2.23869141 0 2 C0 1.34 0 0.68 0 0 Z " fill="#FBFCFD" transform="translate(868,31)"/>
<path d="M0 0 C0.66 0.66 1.32 1.32 2 2 C0.35 3.32 -1.3 4.64 -3 6 C-3 3 -3 3 -1.5 1.3125 C-0.7575 0.6628125 -0.7575 0.6628125 0 0 Z " fill="#9F68FE" transform="translate(72,75)"/>
<path d="M0 0 C1.22589844 0.15275391 1.22589844 0.15275391 2.4765625 0.30859375 C3.41628906 0.43427734 3.41628906 0.43427734 4.375 0.5625 C4.375 1.2225 4.375 1.8825 4.375 2.5625 C-3.05357143 2.84821429 -3.05357143 2.84821429 -6.625 0.5625 C-4.10446405 -0.69776798 -2.7707902 -0.35624445 0 0 Z " fill="#5A88F6" transform="translate(857.625,31.4375)"/>
<path d="M0 0 C0.33 0.99 0.66 1.98 1 3 C-2.63 2.67 -6.26 2.34 -10 2 C-6.00889681 0.0044484 -4.30013434 -0.19546065 0 0 Z " fill="#ECF1FE" transform="translate(867,30)"/>
<path d="M0 0 C3.7952131 1.49097658 5.61042731 3.75700849 8 7 C6.25 6.875 6.25 6.875 4 6 C1.75 2.9375 1.75 2.9375 0 0 Z " fill="#EDE3FE" transform="translate(73,950)"/>
<path d="M0 0 C2.18975773 3.28463659 2.99806563 6.20696275 4 10 C3.34 10 2.68 10 2 10 C-0.09350689 6.5980513 -0.17942163 3.94727588 0 0 Z " fill="#5891F6" transform="translate(979,117)"/>
<path d="M0 0 C0.66 0.33 1.32 0.66 2 1 C0.02 2.98 -1.96 4.96 -4 7 C-4.66 6.67 -5.32 6.34 -6 6 C-2.25 1.125 -2.25 1.125 0 0 Z " fill="#6D7FFC" transform="translate(621,688)"/>
</svg>
